<svg viewBox="0 0 128 128" xmlns="http://www.w3.org/2000/svg"><path d="m27.758 20.421c-7.352 10.565-6.437 24.312-.82 35.54l.411.798.263.506.164.291.293.524c.174.307.353.612.536.919l.306.504c.203.326.41.65.622.973l.265.409c.293.437.592.872.901 1.301l.026.033.152.205c.267.368.542.732.821 1.093l.309.393c.249.313.502.623.759.934l.29.346c.345.406.698.812 1.057 1.208l.021.022.041.045c.351.383.71.758 1.075 1.133l.344.347c.282.284.569.563.858.841l.351.334c.387.364.777.722 1.176 1.07l.018.016.205.174c.351.305.708.605 1.068.902l.442.353c.294.235.591.468.89.696l.477.361c.33.243.663.482.999.717l.363.258.101.072c.318.22.645.431.97.642l.42.28c.5.315 1.007.628 1.519.93l.42.237c.377.217.756.431 1.14.639l.631.326.816.424.188.091.334.161c.427.204.858.405 1.293.599l.273.122c.498.218 1.001.427 1.508.628l.368.144c.469.182.945.359 1.423.527l.179.062c.524.184 1.054.353 1.587.52l.383.114c.542.164 1.079.358 1.638.462 35.553 6.483 45.88-21.364 45.88-21.364-8.674 11.3-24.069 14.28-38.656 10.962-.553-.125-1.089-.298-1.628-.456l-.406-.124c-.526-.161-1.049-.33-1.568-.51l-.215-.077c-.465-.164-.924-.336-1.382-.513l-.388-.152c-.501-.198-1-.405-1.492-.62l-.298-.133c-.423-.191-.842-.384-1.259-.585l-.364-.175c-.327-.159-.65-.328-.974-.495l-.649-.341c-.395-.21-.782-.43-1.167-.654l-.394-.219c-.513-.303-1.019-.615-1.52-.932l-.41-.273c-.363-.234-.725-.473-1.081-.719l-.349-.245c-.344-.242-.685-.489-1.022-.738l-.453-.343c-.31-.237-.618-.476-.922-.721l-.411-.33c-.388-.318-.771-.64-1.149-.969l-.126-.105c-.409-.359-.811-.728-1.208-1.098l-.34-.328c-.294-.279-.584-.561-.868-.851l-.34-.34c-.362-.37-.717-.745-1.065-1.126l-.053-.057c-.368-.402-.728-.813-1.08-1.229l-.283-.336c-.263-.316-.523-.638-.777-.961l-.285-.355c-.307-.397-.605-.793-.898-1.195-8.098-11.047-11.008-26.283-4.535-38.795m17.081-1.626c-5.316 7.65-5.028 17.893-.88 25.983.695 1.356 1.477 2.673 2.351 3.925.796 1.143 1.68 2.501 2.737 3.418.383.422.784.834 1.193 1.238l.314.311c.397.385.801.764 1.218 1.132l.05.043.012.012c.462.405.939.794 1.423 1.178l.323.252c.486.372.981.738 1.489 1.087l.043.033.68.447.322.213c.363.233.73.459 1.104.676l.156.092c.322.185.648.367.975.545l.347.18.682.354.103.047c.469.23.941.453 1.424.663l.314.13c.386.163.775.323 1.167.473l.5.184c.356.132.712.253 1.072.373l.484.155c.511.158 1.017.359 1.549.448 27.45 4.547 33.787-16.588 33.787-16.588-5.712 8.228-16.775 12.153-28.58 9.089-.524-.138-1.042-.288-1.555-.449l-.467-.151c-.365-.117-.728-.243-1.087-.374l-.491-.183c-.394-.152-.784-.309-1.171-.473l-.315-.133c-.485-.211-.962-.434-1.432-.666l-.718-.365-.414-.213c-.306-.166-.61-.338-.909-.514l-.217-.123c-.372-.217-.738-.44-1.1-.672l-.332-.221-.712-.472c-.506-.349-.999-.714-1.484-1.085l-.334-.264c-5.167-4.079-9.263-9.655-11.21-15.977-2.041-6.557-1.601-13.917 1.935-19.891m14.847-.518c-3.134 4.612-3.442 10.341-1.267 15.435 2.293 5.407 6.992 9.648 12.477 11.66l.682.235.3.096c.323.102.644.22.978.282 15.157 2.929 19.268-7.777 20.362-9.354-3.601 5.185-9.653 6.43-17.079 4.627-.586-.142-1.231-.354-1.796-.555-.725-.259-1.439-.553-2.134-.886-1.318-.634-2.575-1.402-3.741-2.282-6.645-5.042-10.772-14.659-6.436-22.492" fill="#fff"/></svg>